<svg xmlns="http://www.w3.org/2000/svg" width="1400" height="820" viewBox="0 0 1400 820"><rect width="1400" height="820" fill="#0b1020"/><rect x="38" y="34" width="1324" height="752" rx="22" fill="#121a2e" stroke="#263453"/><rect x="38" y="34" width="1324" height="72" rx="22" fill="#18233d"/><circle cx="76" cy="70" r="9" fill="#ff6b6b"/><circle cx="106" cy="70" r="9" fill="#ffd166"/><circle cx="136" cy="70" r="9" fill="#06d6a0"/><text x="175" y="78" font-family="Arial" font-size="25" fill="#f8fafc" font-weight="700">Agentic Lead Outreach</text><text x="1150" y="77" font-family="Arial" font-size="16" fill="#94a3b8">LIVE • DRY RUN</text><rect x="70" y="136" width="1260" height="112" rx="16" fill="#18233d"/><text x="94" y="171" font-family="Arial" font-size="15" fill="#94a3b8">PIPELINE STATUS</text><text x="94" y="216" font-family="Arial" font-size="34" fill="#f8fafc" font-weight="700">20 Leads</text><text x="350" y="216" font-family="Arial" font-size="34" fill="#06d6a0" font-weight="700">19 Approved</text><text x="625" y="216" font-family="Arial" font-size="34" fill="#ff7b72" font-weight="700">1 Rejected</text><text x="900" y="216" font-family="Arial" font-size="34" fill="#8ab4ff" font-weight="700">100% Evidence</text><rect x="70" y="278" width="820" height="460" rx="16" fill="#18233d"/><text x="94" y="318" font-family="Arial" font-size="18" fill="#f8fafc" font-weight="700">Lead qualification</text><text x="94" y="350" font-family="Arial" font-size="14" fill="#94a3b8">Evidence-grounded classification and guardrails</text><g font-family="Arial"><rect x="94" y="380" width="772" height="68" rx="12" fill="#11192b"/><text x="116" y="407" font-size="15" fill="#f8fafc">Himalayan Wellness Co.</text><text x="116" y="430" font-size="13" fill="#94a3b8">Wholesale wellness retailer • India</text><text x="790" y="421" font-size="18" fill="#06d6a0" font-weight="700">0.94</text><rect x="94" y="462" width="772" height="68" rx="12" fill="#11192b"/><text x="116" y="489" font-size="15" fill="#f8fafc">Zen Market Group</text><text x="116" y="512" font-size="13" fill="#94a3b8">Imports meditation products • UK</text><text x="790" y="503" font-size="18" fill="#06d6a0" font-weight="700">0.88</text><rect x="94" y="544" width="772" height="68" rx="12" fill="#11192b"/><text x="116" y="571" font-size="15" fill="#f8fafc">Auto Parts Direct</text><text x="116" y="594" font-size="13" fill="#94a3b8">Industrial distributor • Germany</text><text x="790" y="585" font-size="18" fill="#ff7b72" font-weight="700">0.12</text><rect x="94" y="640" width="772" height="70" rx="12" fill="#10251f" stroke="#1f8068"/><text x="116" y="668" font-size="14" fill="#06d6a0" font-weight="700">✓ Evidence verified</text><text x="116" y="691" font-size="13" fill="#94a3b8">No duplicate contact • valid email • human approval required</text></g><rect x="914" y="278" width="416" height="460" rx="16" fill="#18233d"/><text x="940" y="318" font-family="Arial" font-size="18" fill="#f8fafc" font-weight="700">Agent workflow</text><g font-family="Arial" font-size="15"><rect x="940" y="350" width="364" height="54" rx="12" fill="#23304d"/><text x="962" y="383" fill="#f8fafc">01  Classify lead</text><rect x="940" y="418" width="364" height="54" rx="12" fill="#23304d"/><text x="962" y="451" fill="#f8fafc">02  Verify evidence</text><rect x="940" y="486" width="364" height="54" rx="12" fill="#23304d"/><text x="962" y="519" fill="#f8fafc">03  Check memory</text><rect x="940" y="554" width="364" height="54" rx="12" fill="#23304d"/><text x="962" y="587" fill="#f8fafc">04  Personalize email</text><rect x="940" y="622" width="364" height="54" rx="12" fill="#16352e" stroke="#1f8068"/><text x="962" y="655" fill="#06d6a0">05  Human approval gate</text><text x="940" y="707" fill="#94a3b8">Nothing is sent automatically.</text></g></svg>